<svg xmlns="http://www.w3.org/2000/svg" enable-background="new 0 0 1550 1550" viewBox="0 0 1550 1550"><path fill="#d4f3f6" d="M1090.14,134.91v303.96H459.86V134.91c0-22.09,17.91-40,40-40h550.28C1072.23,94.91,1090.14,112.82,1090.14,134.91z"/><path fill="#e5e0e4" d="M1090.14 438.87v53.46c0 22.09-17.91 40-40 40H853.75h-157.5H499.86c-22.09 0-40-17.91-40-40v-53.46H1090.14zM1519 1268.13v40.07c0 22.09-17.91 40-40 40h-180.76-98.48H1019c-22.09 0-40-17.91-40-40v-40.07H1519zM571 1268.13v40.07c0 22.09-17.91 40-40 40H350.24h-98.48H71c-22.09 0-40-17.91-40-40v-40.07H571z"/><path fill="#d4f3f6" d="M1519 1013.44v254.69H979v-254.69c0-22.09 17.91-40 40-40h233.51H1479C1501.09 973.44 1519 991.35 1519 1013.44zM571 1013.44v254.69H31v-254.69c0-22.09 17.91-40 40-40h226.49H531C553.09 973.44 571 991.35 571 1013.44z"/><path d="M1479,1369.2h-460c-33.64,0-61-27.36-61-61v-294.76c0-33.64,27.36-61,61-61h460c33.64,0,61,27.36,61,61v294.76C1540,1341.84,1512.64,1369.2,1479,1369.2z M1019,994.44c-10.48,0-19,8.52-19,19v294.76c0,10.48,8.52,19,19,19h460c10.48,0,19-8.52,19-19v-294.76c0-10.48-8.52-19-19-19H1019z"/><path d="M1519 1289.13H979c-11.6 0-21-9.4-21-21s9.4-21 21-21h540c11.6 0 21 9.4 21 21S1530.6 1289.13 1519 1289.13zM1199.76 1473.19c-11.6 0-21-9.4-21-21V1348.2c0-11.6 9.4-21 21-21s21 9.4 21 21v103.98C1220.76 1463.78 1211.36 1473.19 1199.76 1473.19zM1298.24 1473.19c-11.6 0-21-9.4-21-21V1348.2c0-11.6 9.4-21 21-21s21 9.4 21 21v103.98C1319.24 1463.78 1309.83 1473.19 1298.24 1473.19z"/><path d="M1352.93 1476.09h-207.85c-11.6 0-21-9.4-21-21s9.4-21 21-21h207.85c11.6 0 21 9.4 21 21S1364.52 1476.09 1352.93 1476.09zM531 1369.2H71c-33.64 0-61-27.36-61-61v-294.76c0-33.64 27.36-61 61-61h460c33.64 0 61 27.36 61 61v294.76C592 1341.84 564.64 1369.2 531 1369.2zM71 994.44c-10.48 0-19 8.52-19 19v294.76c0 10.48 8.52 19 19 19h460c10.48 0 19-8.52 19-19v-294.76c0-10.48-8.52-19-19-19H71z"/><path d="M571 1289.13H31c-11.6 0-21-9.4-21-21s9.4-21 21-21h540c11.6 0 21 9.4 21 21S582.6 1289.13 571 1289.13zM350.24 1472.95c-11.6 0-21-9.4-21-21V1348.2c0-11.6 9.4-21 21-21s21 9.4 21 21v103.75C371.24 1463.55 361.83 1472.95 350.24 1472.95zM251.76 1472.95c-11.6 0-21-9.4-21-21V1348.2c0-11.6 9.4-21 21-21s21 9.4 21 21v103.75C272.76 1463.55 263.36 1472.95 251.76 1472.95z"/><path d="M404.93 1476.09H197.07c-11.6 0-21-9.4-21-21s9.4-21 21-21h207.85c11.6 0 21 9.4 21 21S416.52 1476.09 404.93 1476.09zM1252.51 994.44c-11.6 0-21-9.4-21-21V836.26H318.49v137.18c0 11.6-9.4 21-21 21s-21-9.4-21-21V815.26c0-11.6 9.4-21 21-21h955.03c11.6 0 21 9.4 21 21v158.18C1273.51 985.04 1264.11 994.44 1252.51 994.44z"/><g><path d="M775,836.26c-11.6,0-21-9.4-21-21V657.09c0-11.6,9.4-21,21-21s21,9.4,21,21v158.18C796,826.86,786.6,836.26,775,836.26z"/></g><g><path d="M1050.14,553.33H499.86c-33.64,0-61-27.36-61-61V134.91c0-33.64,27.36-61,61-61h550.28c33.64,0,61,27.36,61,61v357.42C1111.14,525.97,1083.78,553.33,1050.14,553.33z M499.86,115.91c-10.48,0-19,8.52-19,19v357.42c0,10.48,8.52,19,19,19h550.28c10.48,0,19-8.52,19-19V134.91c0-10.48-8.52-19-19-19H499.86z"/><path d="M1090.14 459.87H459.86c-11.6 0-21-9.4-21-21s9.4-21 21-21h630.28c11.6 0 21 9.4 21 21S1101.74 459.87 1090.14 459.87zM696.25 674.7c-11.6 0-21-9.4-21-21V532.33c0-11.6 9.4-21 21-21s21 9.4 21 21V653.7C717.25 665.3 707.85 674.7 696.25 674.7zM853.75 674.7c-11.6 0-21-9.4-21-21V532.33c0-11.6 9.4-21 21-21s21 9.4 21 21V653.7C874.75 665.3 865.35 674.7 853.75 674.7z"/><path d="M923.1,678.09H626.9c-11.6,0-21-9.4-21-21s9.4-21,21-21h296.2c11.6,0,21,9.4,21,21S934.7,678.09,923.1,678.09z"/></g><text font-family="MyriadPro-Regular" font-size="12" transform="translate(580.596 826.973)">1550</text></svg>